<svg version="1.1" viewBox="0.0 0.0 960.0 720.0" fill="none" stroke="none" stroke-linecap="square" stroke-miterlimit="10" xmlns:xlink="http://www.w3.org/1999/xlink" xmlns="http://www.w3.org/2000/svg"><clipPath id="p.0"><path d="m0 0l960.0 0l0 720.0l-960.0 0l0 -720.0z" clip-rule="nonzero"/></clipPath><g clip-path="url(#p.0)"><path fill="#000000" fill-opacity="0.0" d="m0 0l960.0 0l0 720.0l-960.0 0z" fill-rule="evenodd"/><path fill="#000000" fill-opacity="0.0" d="m98.77692 438.85068l537.0079 -310.04724l113.102356 195.93701l-537.0079 310.04727z" fill-rule="evenodd"/><path fill="#666666" d="m152.92227 466.1141l39.03862 -22.539368q13.206833 -7.625122 21.29889 -9.608856q10.895447 -2.6280212 21.577927 0.53219604q10.68248 3.1602173 20.005096 11.309418q9.314789 8.135651 17.899475 23.00766q7.537964 13.058685 9.742737 24.379242q2.6925964 13.853516 -0.54418945 25.248596q-2.4234009 8.616089 -10.132233 17.108337q-5.788147 6.3188477 -17.614746 13.147034l-40.20233 23.211304l-61.069244 -105.79556zm31.692993 5.553589l40.455048 70.08377l15.940216 -9.203247q8.957916 -5.171936 12.336807 -8.475952q4.4462433 -4.2991333 6.0809174 -9.374634q1.6404114 -5.0968018 -0.2955017 -13.451294q-1.9359131 -8.354462 -9.020813 -20.628265q-7.0770874 -12.260254 -13.030655 -17.573425q-5.96138 -5.32666 -11.98317 -6.757416q-6.0217896 -1.4307556 -12.766174 0.7311096q-5.064804 1.5710449 -18.122787 9.1102295l-9.593887 5.5391235zm136.25574 38.533936l-61.069244 -105.79553l44.951904 -25.953491q16.968628 -9.796997 26.302765 -11.379242q9.326324 -1.5957947 18.15091 3.034027q8.816803 4.616272 14.2378845 14.00769q6.8740234 11.908417 4.354065 23.701569q-2.5198975 11.793121 -15.285736 21.869965q9.255951 0.032562256 16.558441 2.2755127q7.3082275 2.2216187 22.077515 10.148956l24.835022 13.17572l-25.547638 14.750214l-28.726685 -14.104248q-15.351166 -7.5914 -20.233551 -9.048553q-4.890167 -1.4706421 -8.973999 -0.700531q-4.083832 0.7701111 -11.431488 5.0123596l-4.330078 2.5000305l25.496277 44.169434l-21.366364 12.336121zm-13.8785095 -73.39386l15.791351 -9.11731q15.371887 -8.875122 18.451447 -12.385193q3.0795288 -3.5100708 3.416748 -7.9266357q0.32937622 -4.4301147 -2.420227 -9.193481q-3.0854797 -5.3452454 -7.831024 -6.9716187q-4.753296 -1.6398926 -10.449371 0.4940796q-2.80896 1.1346436 -15.799286 8.634766l-16.65738 9.61731l15.497742 26.848083zm215.93915 -43.268036l-23.233734 13.414246l-23.115051 -18.697357l-42.286194 24.414398l5.145111 29.07251l-22.665405 13.086121l-19.86557 -129.58493l22.584198 -13.039246l103.436646 81.33426zm-63.496857 -19.144165l-37.234283 -30.843018l8.371399 47.507324l28.862885 -16.664307zm74.96512 12.522858l-61.069244 -105.79553l72.52933 -41.87558l10.326599 17.88971l-51.162933 29.53946l14.458832 25.048279l44.167114 -25.500336l10.334412 17.903229l-44.167053 25.500366l25.94934 44.954285l-21.366394 12.336121zm113.95752 -65.794586l-50.742615 -87.90585l-31.39331 18.12526l-10.326599 -17.88971l84.07172 -48.53972l10.32666 17.889694l-31.325623 18.086197l50.742615 87.90582l-21.352844 12.328308z" fill-rule="nonzero"/></g></svg>